# xmcd
#
# Track frame offsets:
#	150
#	10695
#	21305
#	31693
#	44866
#	58253
#	70987
#	81263
#	90713
#	99887
#	109021
#	122200
#	128094
#	139329
#	149622
#	163347
#	175775
#	191150
#	198133
#	212857
#	222982
#	234457
#	247605
#	258203
#	267083
#
# Disc length: 3761 seconds
#
# Revision: 0
# Processed by: cddbd v1.5.2PL0 Copyright (c) Steve Scherf et al.
# Submitted via: EZCDAudioConverter 2.1.5.1
#
DISCID=6d0eaf19
DTITLE=Nashvolle Mandolins and Nashville Fiddles - 100 Cassic Songs Cd 1
DYEAR=2009
DGENRE=Country
TTITLE0=Nashville Mandolins and Fiddles - Fire On The Mountains
TTITLE1=Nashville Mandolins and Fiddles - Black - Eyed Suzie
TTITLE2=Nashville Mandolins and Fiddles - Amazing Grace
TTITLE3=Nashville Mandolins and Fiddles - Beautiful Isle Of Somewhere
TTITLE4=Nashville Mandolins and Fiddles - Tis Sweet To Be Remembered
TTITLE5=Nashville Mandolins and Fiddles - Listen To The Mockingbird 
TTITLE6=Nashville Mandolins and Fiddles - I'm A Man Of Constant Sorrow
TTITLE7=Nashville Mandolins and Fiddles - Home Sweet Home
TTITLE8=Nashville Mandolins and Fiddles - Carry Me Back To Old Virginia
TTITLE9=Nashville Mandolins and Fiddles - My Old Kentucky Home
TTITLE10=Nashville Mandolins and Fiddles - I'll Be All Smiles Tonight
TTITLE11=Nashville Mandolins and Fiddles - Back Up and Push
TTITLE12=Nashville Mandolins and Fiddles - Beautiful Life
TTITLE13=Nashville Mandolins and Fiddles - I've Been Working On The Railroad
TTITLE14=Nashville Mandolins and Fiddles - Alexander's Ragtime Band
TTITLE15=Nashville Mandolins and Fiddles - Marine Hymn
TTITLE16=Nashville Mandolins and Fiddles - Nearer My God To Thee
TTITLE17=Nashville Mandolins and Fiddles - Bile Them Cabbage Down
TTITLE18=Nashville Mandolins and Fiddles - Cripple Creek
TTITLE19=Nashville Mandolins and Fiddles - Liberty
TTITLE20=Nashville Mandolins and Fiddles - In The Garden
TTITLE21=Nashville Mandolins and Fiddles - Rollin' In My Sweet Baby's Arms
TTITLE22=Nashville Mandolins and Fiddles - Lorena
TTITLE23=Nashville Mandolins and Fiddles - When Johnny Comes Marching Home
TTITLE24=Rock Of Ages
EXTD=
EXTT0=
EXTT1=
EXTT2=
EXTT3=
EXTT4=
EXTT5=
EXTT6=
EXTT7=
EXTT8=
EXTT9=
EXTT10=
EXTT11=
EXTT12=
EXTT13=
EXTT14=
EXTT15=
EXTT16=
EXTT17=
EXTT18=
EXTT19=
EXTT20=
EXTT21=
EXTT22=
EXTT23=
EXTT24=
PLAYORDER=
